<svg xmlns="http://www.w3.org/2000/svg" width="42" height="44" viewBox="0 0 42 44"><defs><style>.a11{fill:#393939;}.b11{fill:#606060;}.c11,.d11,.e11,.f11{fill:#fff;}.c11,.d11{stroke-miterlimit:10;}.d11{stroke:#606060;stroke-width:2px;}.g11,.h11{stroke:none;}.h11{fill:#606060;}.i11{fill:none;}</style></defs><g transform="translate(-303.965 370.463)"><circle class="a11" cx="21" cy="21" r="21" transform="translate(303.965 -368.463)"/><circle class="b11" cx="21" cy="21" r="21" transform="translate(303.965 -370.463)"/><g class="c11"><path class="g11" d="M 325.1849975585938 -333.6640014648438 C 322.3479614257812 -333.6640014648438 319.6103820800781 -334.3817138671875 317.6741943359375 -335.6331481933594 C 316.8525390625 -336.1632385253906 316.3837280273438 -336.9700012207031 316.3191223144531 -337.9656982421875 C 316.2033081054688 -339.7515258789062 317.4682922363281 -342.0397644042969 319.5418395996094 -343.7952270507812 L 320.1961059570312 -344.34912109375 L 320.8434753417969 -343.7872009277344 C 321.0218200683594 -343.6324157714844 321.1957397460938 -343.4761657714844 321.3639221191406 -343.3250427246094 C 322.4851989746094 -342.3176879882812 323.3708190917969 -341.5220031738281 324.9660034179688 -341.5220031738281 C 326.5776672363281 -341.5220031738281 327.4855346679688 -342.3422241210938 328.6349182128906 -343.3806457519531 C 328.7930908203125 -343.5235595703125 328.9566650390625 -343.6713256835938 329.1234436035156 -343.8176574707031 L 329.7583312988281 -344.3747863769531 L 330.4137878417969 -343.8419494628906 C 331.3997802734375 -343.0404052734375 332.2239379882812 -342.064697265625 332.7971801757812 -341.0203247070312 C 333.3925170898438 -339.9356384277344 333.6734619140625 -338.8566589355469 333.6096496582031 -337.8999938964844 C 333.5379333496094 -336.825439453125 333.0224304199219 -335.9422607421875 332.1581115722656 -335.4131164550781 C 330.3130493164062 -334.2850646972656 327.8367919921875 -333.6640014648438 325.1849975585938 -333.6640014648438 Z"/><path class="h11" d="M 329.7829895019531 -343.0660095214844 C 328.4039916992188 -341.8559875488281 327.2269897460938 -340.5220031738281 324.9660034179688 -340.5220031738281 C 322.7040100097656 -340.5220031738281 321.5589904785156 -341.8420104980469 320.18798828125 -343.0320129394531 C 317.7239990234375 -340.9460144042969 316.2640075683594 -337.7330017089844 318.2170104980469 -336.4729919433594 C 321.7274475097656 -334.2041625976562 327.9211730957031 -333.9947814941406 331.635986328125 -336.2659912109375 C 333.5880126953125 -337.4609985351562 332.4559936523438 -340.8930053710938 329.7829895019531 -343.0660095214844 M 329.7337036132812 -345.6835632324219 L 331.0445861816406 -344.6178894042969 C 333.3583984375 -342.7369079589844 334.7568969726562 -340.0738220214844 334.607421875 -337.8334350585938 C 334.5135192871094 -336.4259948730469 333.8290710449219 -335.2635803222656 332.6802368164062 -334.5602416992188 C 330.6798095703125 -333.3372192382812 328.018310546875 -332.6640014648438 325.1849975585938 -332.6640014648438 C 322.1604919433594 -332.6640014648438 319.2250671386719 -333.4400939941406 317.1313781738281 -334.7933044433594 C 316.0492553710938 -335.491455078125 315.4059143066406 -336.5953979492188 315.3212280273438 -337.9009704589844 C 315.2481079101562 -339.0281982421875 315.6001892089844 -340.2924194335938 316.3393859863281 -341.5569152832031 C 316.9734191894531 -342.6414794921875 317.8573608398438 -343.6794128417969 318.8956909179688 -344.5584411621094 L 320.2042236328125 -345.6662292480469 L 321.4989624023438 -344.5424194335938 C 321.6837768554688 -344.3820190429688 321.8609313964844 -344.2228393554688 322.0322265625 -344.0689392089844 C 323.1950988769531 -343.0242004394531 323.8055419921875 -342.5220031738281 324.9660034179688 -342.5220031738281 C 326.1382446289062 -342.5220031738281 326.8003540039062 -343.0708618164062 327.9645385742188 -344.1226501464844 C 328.1253662109375 -344.2679748535156 328.2916564941406 -344.418212890625 328.4638671875 -344.5693054199219 L 329.7337036132812 -345.6835632324219 Z"/></g><g class="d" transform="translate(316.429 -361.485)"><circle class="g" cx="8.536" cy="8.536" r="8.536"/><circle class="i" cx="8.536" cy="8.536" r="9.536"/></g><circle class="b" cx="2.276" cy="2.276" r="2.276" transform="translate(318.721 -355.226)"/><path class="e" d="M321-352.949l1.707-2.957a3.4,3.4,0,0,1,1.25,1.249,3.413,3.413,0,0,1,.458,1.708Z"/><circle class="b" cx="2.276" cy="2.276" r="2.276" transform="translate(326.657 -355.226)"/><path class="e" d="M328.933-352.949l1.707-2.957a3.412,3.412,0,0,1,1.25,1.249,3.413,3.413,0,0,1,.458,1.708Z"/><g class="f11"><path class="g11" d="M 334.6080017089844 -354.2919921875 C 333.4820556640625 -354.2919921875 332.5660095214844 -355.2084655761719 332.5660095214844 -356.3349914550781 L 332.5660095214844 -357.2179870605469 L 331.6830139160156 -357.2179870605469 C 330.5564880371094 -357.2179870605469 329.6400146484375 -358.134033203125 329.6400146484375 -359.260009765625 C 329.6400146484375 -360.3865051269531 330.5564880371094 -361.3030090332031 331.6830139160156 -361.3030090332031 L 332.5660095214844 -361.3030090332031 L 332.5660095214844 -362.1860046386719 C 332.5660095214844 -363.3119506835938 333.4820556640625 -364.2279968261719 334.6080017089844 -364.2279968261719 C 335.7344970703125 -364.2279968261719 336.6510009765625 -363.3119506835938 336.6510009765625 -362.1860046386719 L 336.6510009765625 -361.3030090332031 L 337.5339965820312 -361.3030090332031 C 338.6599731445312 -361.3030090332031 339.5759887695312 -360.3865051269531 339.5759887695312 -359.260009765625 C 339.5759887695312 -358.134033203125 338.6599731445312 -357.2179870605469 337.5339965820312 -357.2179870605469 L 336.6510009765625 -357.2179870605469 L 336.6510009765625 -356.3349914550781 C 336.6510009765625 -355.2084655761719 335.7344970703125 -354.2919921875 334.6080017089844 -354.2919921875 Z"/><path class="h11" d="M 334.6080017089844 -363.2279968261719 C 334.0320129394531 -363.2279968261719 333.5660095214844 -362.7619934082031 333.5660095214844 -362.1860046386719 L 333.5660095214844 -360.3030090332031 L 331.6830139160156 -360.3030090332031 C 331.1069946289062 -360.3030090332031 330.6400146484375 -359.8359985351562 330.6400146484375 -359.260009765625 C 330.6400146484375 -358.6849975585938 331.1069946289062 -358.2179870605469 331.6830139160156 -358.2179870605469 L 333.5660095214844 -358.2179870605469 L 333.5660095214844 -356.3349914550781 C 333.5660095214844 -355.7590026855469 334.0320129394531 -355.2919921875 334.6080017089844 -355.2919921875 C 335.1839904785156 -355.2919921875 335.6510009765625 -355.7590026855469 335.6510009765625 -356.3349914550781 L 335.6510009765625 -358.2179870605469 L 337.5339965820312 -358.2179870605469 C 338.1090087890625 -358.2179870605469 338.5759887695312 -358.6849975585938 338.5759887695312 -359.260009765625 C 338.5759887695312 -359.8359985351562 338.1090087890625 -360.3030090332031 337.5339965820312 -360.3030090332031 L 335.6510009765625 -360.3030090332031 L 335.6510009765625 -362.1860046386719 C 335.6510009765625 -362.7619934082031 335.1839904785156 -363.2279968261719 334.6080017089844 -363.2279968261719 M 334.6080017089844 -365.2279968261719 C 336.2474060058594 -365.2279968261719 337.5881958007812 -363.9251708984375 337.6488647460938 -362.3008728027344 C 339.2731628417969 -362.2402038574219 340.5759887695312 -360.8994140625 340.5759887695312 -359.260009765625 C 340.5759887695312 -357.6211242675781 339.2731628417969 -356.2807922363281 337.6488647460938 -356.2201232910156 C 337.5883483886719 -354.5951538085938 336.2475280761719 -353.2919921875 334.6080017089844 -353.2919921875 C 332.9691467285156 -353.2919921875 331.6288146972656 -354.5952758789062 331.5681457519531 -356.2201232910156 C 329.9432983398438 -356.2807922363281 328.6400146484375 -357.6211242675781 328.6400146484375 -359.260009765625 C 328.6400146484375 -360.8995361328125 329.9431762695312 -362.2403564453125 331.5681457519531 -362.3008728027344 C 331.6288146972656 -363.9251708984375 332.9691467285156 -365.2279968261719 334.6080017089844 -365.2279968261719 Z"/></g></g></svg>