<svg xmlns="http://www.w3.org/2000/svg" width="63.062" height="65.739" viewBox="0 0 63.062 65.739"><defs><style>.a36{fill:#040206;}.b36{fill:#232323;}.c36{fill:#fff;}.d36{fill:none;stroke:#fff;stroke-linecap:round;stroke-width:2px;}</style></defs><path class="a36" d="M31.375,0A31.375,31.375,0,1,1,0,31.375,31.375,31.375,0,0,1,31.375,0Z" transform="translate(0.312 2.988)"/><path class="b36" d="M31.5,0A31.5,31.5,0,1,1,0,31.5,31.5,31.5,0,0,1,31.5,0Z"/><g transform="translate(12.638 18.747)"><path class="c36" d="M123.065,114.7a1.385,1.385,0,0,0-1.377,0l-9.209,5.265h-5.064a1.382,1.382,0,0,0-1.377,1.382V129.5a1.377,1.377,0,0,0,1.377,1.377h5.077l9.2,5.265a1.376,1.376,0,0,0,1.828-.5,1.313,1.313,0,0,0,.182-.678V115.876A1.383,1.383,0,0,0,123.065,114.7Z" transform="translate(-106.037 -111.958)"/><path class="c36" d="M114.987,117.053a1.383,1.383,0,0,0-.213,1.932,5.482,5.482,0,0,1,0,6.466,1.383,1.383,0,0,0,2.116,1.724,8.139,8.139,0,0,0,0-9.884A1.386,1.386,0,0,0,114.987,117.053Z" transform="translate(-94.047 -108.746)"/><path class="c36" d="M119.142,115.594a1.355,1.355,0,0,0-2.116,1.695,12.187,12.187,0,0,1,0,14.627,1.383,1.383,0,0,0,2.116,1.76A15.066,15.066,0,0,0,119.142,115.594Z" transform="translate(-90.845 -111.151)"/><path class="c36" d="M121.5,113.808a1.384,1.384,0,0,0-2.128,1.707,19.046,19.046,0,0,1,0,22.812,1.384,1.384,0,1,0,1.83,2.077h0a1.371,1.371,0,0,0,.29-.366A21.893,21.893,0,0,0,121.5,113.808Z" transform="translate(-87.759 -113.461)"/></g><line class="d36" x2="34.364" y2="34.364" transform="translate(14.505 14.688)"/></svg>