<svg xmlns="http://www.w3.org/2000/svg" width="42" height="44" viewBox="0 0 42 44"><defs><style>.a{fill:#040206;}.b{fill:#232323;}.c{fill:#fff;}.d{fill:none;stroke:#fff;stroke-linecap:round;}</style></defs><path class="a" d="M21,0A21,21,0,1,1,0,21,21,21,0,0,1,21,0Z" transform="translate(0 2)"/><circle class="b" cx="21" cy="21" r="21"/><g transform="translate(8.25 12.548)"><path class="c" d="M117.434,114.641a.927.927,0,0,0-.922,0l-6.164,3.524h-3.39a.925.925,0,0,0-.922.925v5.457a.921.921,0,0,0,.922.922h3.4l6.16,3.524a.921.921,0,0,0,1.223-.337.878.878,0,0,0,.122-.454V115.427A.926.926,0,0,0,117.434,114.641Z" transform="translate(-106.037 -112.804)"/><path class="c" d="M114.818,116.962a.925.925,0,0,0-.143,1.293,3.669,3.669,0,0,1,0,4.328.926.926,0,0,0,1.416,1.154,5.448,5.448,0,0,0,0-6.616A.928.928,0,0,0,114.818,116.962Z" transform="translate(-100.802 -111.402)"/><path class="c" d="M118.344,115.426a.907.907,0,0,0-1.416,1.134,8.157,8.157,0,0,1,0,9.79.926.926,0,0,0,1.416,1.178A10.084,10.084,0,0,0,118.344,115.426Z" transform="translate(-99.404 -112.452)"/><path class="c" d="M120.64,113.693a.926.926,0,0,0-1.424,1.142,12.748,12.748,0,0,1,0,15.268.926.926,0,1,0,1.225,1.39h0a.918.918,0,0,0,.194-.245A14.653,14.653,0,0,0,120.64,113.693Z" transform="translate(-98.057 -113.461)"/></g><path class="d" d="M0,0,23,23" transform="translate(9.5 10.36)"/></svg>