<svg xmlns="http://www.w3.org/2000/svg" width="42" height="44" viewBox="0 0 42 44"><defs><style>.a2211{fill:blue;}.b2211{fill:#451cff;}.c2211{fill:#fff;}.c2211,.d2211{stroke:#451cff;stroke-miterlimit:10;}.d2211{fill:none;}</style></defs><g transform="translate(-850 -500)"><circle class="a2211" cx="21" cy="21" r="21" transform="translate(850 502)"/><circle class="b2211" cx="21" cy="21" r="21" transform="translate(850 500)"/></g><g transform="translate(-850 -500)"><path class="c2211" d="M0,0H18.7a0,0,0,0,1,0,0V18.883a3.259,3.259,0,0,1-3.259,3.259H3.259A3.259,3.259,0,0,1,0,18.883V0A0,0,0,0,1,0,0Z" transform="translate(861.652 511.485)"/><rect class="c2211" width="5.02" height="3.111" transform="translate(861.652 508.374)"/><rect class="c2211" width="5.02" height="3.111" transform="translate(875.328 508.374)"/><path class="d2211" d="M880.348,511.485l-2.255,4.723a5.9,5.9,0,0,1-5.405,3.019h-3.376a5.9,5.9,0,0,1-5.405-3.019l-2.255-4.723"/><path class="d2211" d="M877.186,533.106v-7.231a1.248,1.248,0,0,0-1.289-1.2H866.1a1.248,1.248,0,0,0-1.289,1.2v7.231"/></g></svg>