<svg xmlns="http://www.w3.org/2000/svg" width="42" height="44" viewBox="0 0 42 44"><defs><style>.a{fill:#040206;}.b{fill:#232323;}.c{fill:#fff;}.d{fill:none;stroke:#fff;stroke-linecap:round;}</style></defs><path class="a" d="M21,0A21,21,0,1,1,0,21,21,21,0,0,1,21,0Z" transform="translate(0 2)"/><circle class="b" cx="21" cy="21" r="21"/><g transform="translate(11.005 13.632)"><rect class="c" width="17.134" height="14.736" rx="3.777"/><path class="c" d="M95.016,131.294l-6.01-3.266a.706.706,0,0,1-.368-.619v-.895a.7.7,0,0,1,.368-.619l6.01-3.266a.7.7,0,0,1,1.04.618v7.429A.7.7,0,0,1,95.016,131.294Z" transform="translate(-74.056 -119.614)"/></g><line class="d" x2="23" y2="23" transform="translate(9.5 10)"/></svg>