<svg xmlns="http://www.w3.org/2000/svg" width="42" height="44" viewBox="0 0 42 44"><defs><style>.a2{fill:#451cff;}.b2{fill:#523ff9;}.c2{fill:#fff;}</style></defs><path class="a2" d="M21,0A21,21,0,1,1,0,21,21,21,0,0,1,21,0Z" transform="translate(0 2)"/><circle class="b2" cx="21" cy="21" r="21"/><g transform="translate(11.005 13.632)"><rect class="c2" width="17.134" height="14.736" rx="3.777"/><path class="c2" d="M95.016,131.294l-6.01-3.266a.706.706,0,0,1-.368-.619v-.895a.7.7,0,0,1,.368-.619l6.01-3.266a.7.7,0,0,1,1.04.618v7.429A.7.7,0,0,1,95.016,131.294Z" transform="translate(-74.056 -119.614)"/></g></svg>