<svg xmlns="http://www.w3.org/2000/svg" width="62.751" height="65.739" viewBox="0 0 62.751 65.739"><defs><style>.a21{fill:#451cff;}.b21{fill:#523ff9;}.c21{fill:#fff;}</style></defs><path class="a21" d="M31.375,0A31.375,31.375,0,1,1,0,31.375,31.375,31.375,0,0,1,31.375,0Z" transform="translate(0 2.988)"/><ellipse class="b21" cx="31" cy="31.5" rx="31" ry="31.5" transform="translate(0.344)"/><g transform="translate(16.442 20.367)"><rect class="c21" width="25.6" height="22.016" rx="3.777"/><path class="c21" d="M98.167,135.617l-8.979-4.88a1.055,1.055,0,0,1-.549-.925v-1.337a1.051,1.051,0,0,1,.549-.925l8.979-4.88a1.051,1.051,0,0,1,1.553.923v11.1A1.052,1.052,0,0,1,98.167,135.617Z" transform="translate(-66.851 -118.168)"/></g></svg>