<svg xmlns="http://www.w3.org/2000/svg" width="62.751" height="65.739" viewBox="0 0 62.751 65.739"><defs><style>.a35{fill:#040206;}.b35{fill:#232323;}.c35{fill:#fff;}.d35{fill:none;stroke:#fff;stroke-linecap:round;stroke-width:2px;}</style></defs><path class="a35" d="M31.375,0A31.375,31.375,0,1,1,0,31.375,31.375,31.375,0,0,1,31.375,0Z" transform="translate(0 2.988)"/><path class="b35" d="M31,0C48.121,0,62,14.1,62,31.5S48.121,63,31,63,0,48.9,0,31.5,13.879,0,31,0Z" transform="translate(0.344)"/><g transform="translate(16.442 20.367)"><rect class="c35" width="25.6" height="22.016" rx="3.777"/><path class="c35" d="M98.167,135.617l-8.979-4.88a1.055,1.055,0,0,1-.549-.925v-1.337a1.051,1.051,0,0,1,.549-.925l8.979-4.88a1.051,1.051,0,0,1,1.553.923v11.1A1.052,1.052,0,0,1,98.167,135.617Z" transform="translate(-66.851 -118.168)"/></g><line class="d35" x2="34.364" y2="34.364" transform="translate(14.816 14.688)"/></svg>