<svg xmlns="http://www.w3.org/2000/svg" width="42" height="44" viewBox="0 0 42 44"><defs><style>.a1323{fill:blue;}.b1323{fill:#451cff;}.c1323,.d1323,.e1323,.h1323,.i1323,.j1323{fill:#fff;}.d1323,.e1323,.f1323,.h1323,.i1323,.j1323,.k1323{stroke-miterlimit:10;}.e1323,.g1323,.h1323,.i1323,.j1323,.k1323{stroke:#451cff;}.e1323,.f1323,.g1323,.i1323,.j1323,.k1323{stroke-linecap:round;}.f1323,.g1323,.k1323,.n1323{fill:none;}.f1323{stroke:#fff;stroke-width:2px;}.g1323{stroke-linejoin:round;}.h1323,.j1323{stroke-width:0.75px;}.i1323,.k1323{stroke-width:0.5px;}.l1323,.m1323{stroke:none;}.m1323{fill:#451cff;}</style></defs><circle class="a1323" cx="21" cy="21" r="21" transform="translate(0 2)"/><circle class="b1323" cx="21" cy="21" r="21"/><g transform="translate(-1000 -500)"><rect class="c1323" width="2.351" height="10.834" transform="translate(1027.042 521.88)"/><g class="d1323"><path class="l1323" d="M 1018.76806640625 533.2139892578125 L 1018.560974121094 533.2139892578125 L 1014.195007324219 533.2139892578125 C 1011.649719238281 533.2139892578125 1009.578979492188 531.1437377929688 1009.578979492188 528.5989990234375 C 1009.578979492188 527.0228271484375 1009.939331054688 525.4382934570312 1010.621032714844 524.0167846679688 C 1011.302673339844 522.595458984375 1012.312683105469 521.3223266601562 1013.541870117188 520.3351440429688 L 1014.517211914062 519.5529174804688 C 1017.768371582031 516.9407348632812 1021.856811523438 515.5020141601562 1026.029052734375 515.5020141601562 L 1029.392944335938 515.5020141601562 L 1029.892944335938 515.5020141601562 L 1029.892944335938 516.0020141601562 L 1029.892944335938 518.7689819335938 C 1029.892944335938 520.909423828125 1029.059692382812 522.9215087890625 1027.546508789062 524.4345703125 L 1018.91455078125 533.0675048828125 L 1018.76806640625 533.2139892578125 Z"/><path class="m1323" d="M 1026.029052734375 516.0020141601562 C 1021.955993652344 516.0020141601562 1018.005004882812 517.3920288085938 1014.830078125 519.9429931640625 L 1013.85498046875 520.7249755859375 C 1011.468017578125 522.6420288085938 1010.078979492188 525.5380249023438 1010.078979492188 528.5989990234375 C 1010.078979492188 530.8720092773438 1011.921997070312 532.7139892578125 1014.195068359375 532.7139892578125 L 1018.560974121094 532.7139892578125 L 1027.192993164062 524.0809936523438 C 1028.60205078125 522.6719970703125 1029.392944335938 520.760986328125 1029.392944335938 518.7689819335938 L 1029.392944335938 516.0020141601562 L 1026.029052734375 516.0020141601562 M 1026.029052734375 515.0020141601562 L 1030.392944335938 515.0020141601562 L 1030.392944335938 518.7689819335938 C 1030.392944335938 521.0430297851562 1029.507568359375 523.1806640625 1027.900146484375 524.7880859375 L 1018.975219726562 533.7139892578125 L 1014.195068359375 533.7139892578125 C 1011.3740234375 533.7139892578125 1009.078979492188 531.41943359375 1009.078979492188 528.5989990234375 C 1009.078979492188 526.9484252929688 1009.456298828125 525.2891845703125 1010.170166015625 523.8005981445312 C 1010.884033203125 522.3121948242188 1011.941650390625 520.9790649414062 1013.228759765625 519.9453125 L 1014.204467773438 519.162841796875 C 1017.543701171875 516.4799194335938 1021.743286132812 515.0020141601562 1026.029052734375 515.0020141601562 Z"/></g><path class="e" d="M1023.055,521.88V533.3h3.527V521.88"/><path class="c1323" d="M0,0H5.906a2,2,0,0,1,2,2v.351a0,0,0,0,1,0,0H0a0,0,0,0,1,0,0V0A0,0,0,0,1,0,0Z" transform="translate(1015.366 530.363)"/><path class="f1323" d="M1011.964,528s-4.527-4.527-4.026-9.906"/><path class="g1323" d="M1014.726,526.675h1.615a3.836,3.836,0,0,1,3.836,3.836h1.211a2.182,2.182,0,0,1,1.884,2.2"/><g class="h1323" transform="translate(1022.33 508.698)"><circle class="l1323" cx="4.712" cy="4.712" r="4.712"/><circle class="n1323" cx="4.712" cy="4.712" r="5.087"/></g><path class="i1323" d="M1025.888,516.185a2.186,2.186,0,0,0,2.305,0"/><path class="j1323" d="M1031.029,510.367h0a3.072,3.072,0,0,1,3.072,3.072v3.522a1.536,1.536,0,0,1-1.536,1.536h0a1.535,1.535,0,0,1-1.536-1.536v-3.912"/><line class="k1323" y2="1.788" transform="translate(1027.042 516.514)"/><path class="j1323" d="M1023.055,510.367h0a3.072,3.072,0,0,0-3.072,3.072v3.522a1.536,1.536,0,0,0,1.536,1.536h0a1.536,1.536,0,0,0,1.536-1.536v-3.912"/><circle class="b1323" cx="0.942" cy="0.942" r="0.942" transform="translate(1024.249 512.402)"/><circle class="b1323" cx="0.942" cy="0.942" r="0.942" transform="translate(1027.95 512.402)"/></g></svg>