<svg xmlns="http://www.w3.org/2000/svg" width="63" height="66" viewBox="0 0 63 66"><defs><style>.a26{fill:#040206;}.b26{fill:#232323;}.c26{fill:#fff;}</style></defs><circle class="a26" cx="31.5" cy="31.5" r="31.5" transform="translate(0 3)"/><circle class="b26" cx="31.5" cy="31.5" r="31.5"/><g transform="translate(18.696 11.383)"><path class="c26" d="M629.019,231.545c-2.069,1.815-3.834,3.818-7.226,3.818s-5.11-1.982-7.167-3.767c-3.7,3.13-5.886,7.949-2.957,9.84a19.807,19.807,0,0,0,10.452,2.714,18.9,18.9,0,0,0,9.677-2.4C634.726,239.954,633.028,234.8,629.019,231.545Z" transform="translate(-608.988 -203.917)"/><path class="c26" d="M622.233,238.734a12.8,12.8,0,1,0-12.8-12.8A12.8,12.8,0,0,0,622.233,238.734Zm5.952-16.218a3.37,3.37,0,0,1,1.7.47l-1.7,2.944H631.6a3.414,3.414,0,1,1-3.414-3.414Zm-14.317,1a3.4,3.4,0,0,1,4.114-.531l-1.7,2.944H619.7a3.414,3.414,0,1,1-5.829-2.414Z" transform="translate(-609.429 -213.126)"/></g></svg>