<svg xmlns="http://www.w3.org/2000/svg" width="42" height="44" viewBox="0 0 42 44"><defs><style>.a{fill:#040206;}.b{fill:#232323;}.c{fill:#fff;}</style></defs><circle class="a" cx="21" cy="21" r="21" transform="translate(0 2)"/><circle class="b" cx="21" cy="21" r="21"/><g transform="translate(-596.965 -205.537)"><path class="c" d="M622.783,231.545c-1.379,1.21-2.556,2.545-4.817,2.545s-3.407-1.321-4.778-2.511c-2.464,2.087-3.924,5.3-1.971,6.56a13.205,13.205,0,0,0,6.968,1.809,12.6,12.6,0,0,0,6.451-1.6C626.588,237.151,625.456,233.718,622.783,231.545Z"/><path class="c" d="M617.965,230.2a8.536,8.536,0,1,0-8.536-8.536A8.535,8.535,0,0,0,617.965,230.2Zm3.968-10.812a2.247,2.247,0,0,1,1.133.313l-1.133,1.963h2.276a2.276,2.276,0,1,1-2.276-2.276Zm-9.545.667a2.268,2.268,0,0,1,2.743-.354L614,221.662h2.277a2.276,2.276,0,1,1-3.886-1.609Z"/></g></svg>