<svg xmlns="http://www.w3.org/2000/svg" xmlns:xlink="http://www.w3.org/1999/xlink" width="326" height="52" viewBox="0 0 326 52"><defs><style>.a{fill:#1755a4;}.b,.d{fill:#fff;}.b{font-size:19px;font-family:NiveauGroteskBold, Niveau Grotesk;}.c{fill:#1877f2;}.e{filter:url(#a);}</style><filter id="a" x="0" y="0" width="326" height="52" filterUnits="userSpaceOnUse"><feOffset dy="4" input="SourceAlpha"/><feGaussianBlur result="b"/><feFlood flood-color="#124484"/><feComposite operator="in" in2="b"/><feComposite in="SourceGraphic"/></filter></defs><g transform="translate(-797 -599)"><g class="e" transform="matrix(1, 0, 0, 1, 797, 599)"><rect class="a" width="326" height="48" rx="24" transform="translate(0 0)"/></g><text class="b" transform="translate(983 630)"><tspan x="-104.319" y="0">LOG IN WITH FACEBOOK</tspan></text></g><g transform="translate(-643 -51)"><path class="c" d="M48,24A24,24,0,1,0,20.25,47.708V30.938H14.156V24H20.25V18.713c0-6.015,3.583-9.338,9.065-9.338a36.906,36.906,0,0,1,5.372.469V15.75H31.661c-2.981,0-3.911,1.85-3.911,3.748V24h6.656l-1.064,6.938H27.75V47.708A24.006,24.006,0,0,0,48,24Z" transform="translate(643 51)"/><path class="d" d="M321.186,221.563l1.064-6.937h-6.656v-4.5c0-1.9.93-3.748,3.911-3.748h3.026v-5.906a36.906,36.906,0,0,0-5.372-.469c-5.482,0-9.065,3.322-9.065,9.337v5.288H302v6.938h6.094v16.771a24.251,24.251,0,0,0,7.5,0V221.563Z" transform="translate(355.156 -139.625)"/></g></svg>