<svg xmlns="http://www.w3.org/2000/svg" width="42" height="44" viewBox="0 0 42 44"><defs><style>.a232{fill:#040206;}.b232{fill:#232323;}.c232{fill:#fff;}</style></defs><g transform="translate(-800 -500)"><circle class="a232" cx="21" cy="21" r="21" transform="translate(800 502)"/><circle class="b232" cx="21" cy="21" r="21" transform="translate(800 500)"/><path class="c232" d="M821,509.5A11.5,11.5,0,0,0,809.5,521h0A11.5,11.5,0,1,0,821,509.5Zm-3.176,13.669a3.068,3.068,0,0,1-4.337,0h0a3.067,3.067,0,0,1,0-4.337h0a3.058,3.058,0,0,1,3.7-.477L815.65,521h3.066A3.056,3.056,0,0,1,817.824,523.169Zm8.523.9a3.067,3.067,0,1,1,1.527-5.712L826.346,521h3.067a3.067,3.067,0,0,1-3.067,3.067Z"/></g></svg>