<svg xmlns="http://www.w3.org/2000/svg" width="27.414" height="34.505" viewBox="0 0 27.414 34.505"><defs><style>.a14,.c14{fill:none;stroke:#fff;stroke-miterlimit:10;stroke-width:2px;}.a14{stroke-linecap:round;}.b14{fill:#fff;}</style></defs><g transform="translate(-267.993 546.051)"><line class="a14" x1="5.99" y2="5.99" transform="translate(269.408 -526.041)"/><path class="b14" d="M291.414-511.364c-1.7,1.489-3.145,3.132-5.928,3.132s-4.193-1.626-5.88-3.09c-3.033,2.568-4.829,6.521-2.425,8.072a16.243,16.243,0,0,0,8.575,2.227A15.5,15.5,0,0,0,293.694-503C296.1-504.466,294.7-508.69,291.414-511.364Z" transform="translate(-2.08 -10.522)"/><path class="c14" d="M284.766-523.046a11.014,11.014,0,0,1-11-11,11.015,11.015,0,0,1,11-11,11.015,11.015,0,0,1,11,11A11.015,11.015,0,0,1,284.766-523.046Z" transform="translate(-1.36 0)"/><g transform="translate(276.185 -541.269)"><path class="b14" d="M286.483-539.551a7.22,7.22,0,0,0-7.22,7.22,7.22,7.22,0,0,0,7.22,7.22,7.22,7.22,0,0,0,7.22-7.22A7.22,7.22,0,0,0,286.483-539.551Zm-1.995,8.582a1.925,1.925,0,0,1-2.723,0,1.926,1.926,0,0,1,0-2.723,1.922,1.922,0,0,1,2.321-.3l-.959,1.661h1.925A1.919,1.919,0,0,1,284.488-530.969Zm5.351.564a1.925,1.925,0,0,1-1.925-1.925,1.925,1.925,0,0,1,1.925-1.925,1.908,1.908,0,0,1,.959.265l-.959,1.661h1.925A1.925,1.925,0,0,1,289.84-530.405Z" transform="translate(-279.263 539.551)"/></g></g></svg>