<svg  xmlns="http://www.w3.org/2000/svg" xmlns:xlink="http://www.w3.org/1999/xlink" width="42" height="44" viewBox="0 0 42 44"><defs><style>.a12{fill:#606060;}.b12,.d12{fill:none;stroke:#fff;stroke-miterlimit:10;stroke-width:2px;}.b12{stroke-linecap:round;}.c12{fill:#fff;}.e12{filter:url(#a);}</style><filter id="a12" x="0" y="0" width="42" height="44" filterUnits="userSpaceOnUse"><feOffset dy="2" input="SourceAlpha"/><feGaussianBlur result="b12"/><feFlood flood-color="#393939"/><feComposite operator="in" in2="b12"/><feComposite in="SourceGraphic"/></filter></defs><g transform="translate(-325 -16)"><g transform="translate(325 16)"><g class="e12" transform="matrix(1, 0, 0, 1, 0, 0)"><circle class="a12" cx="21" cy="21" r="21"/></g></g><g transform="translate(65.467 568.481)"><line class="b12" x1="4.852" y2="4.852" transform="translate(269.408 -529.653)"/><path class="c12" d="M288.5-511.364c-1.375,1.206-2.548,2.537-4.8,2.537s-3.4-1.317-4.762-2.5c-2.457,2.08-3.911,5.282-1.965,6.538a13.157,13.157,0,0,0,6.946,1.8,12.556,12.556,0,0,0,6.43-1.6C292.291-505.777,291.163-509.2,288.5-511.364Z" transform="translate(-2.95 -14.923)"/><path class="d12" d="M282.675-527.227a8.922,8.922,0,0,1-8.912-8.912,8.922,8.922,0,0,1,8.912-8.912,8.922,8.922,0,0,1,8.912,8.912A8.922,8.922,0,0,1,282.675-527.227Z" transform="translate(-1.929)"/><g transform="translate(274.897 -541.987)"><path class="c12" d="M285.111-539.551a5.848,5.848,0,0,0-5.848,5.849,5.848,5.848,0,0,0,5.848,5.849,5.848,5.848,0,0,0,5.849-5.849A5.848,5.848,0,0,0,285.111-539.551ZM283.5-532.6a1.559,1.559,0,0,1-2.206,0,1.56,1.56,0,0,1,0-2.206,1.557,1.557,0,0,1,1.88-.242l-.777,1.345h1.56A1.554,1.554,0,0,1,283.5-532.6Zm4.335.457a1.559,1.559,0,0,1-1.56-1.56,1.56,1.56,0,0,1,1.56-1.56,1.546,1.546,0,0,1,.776.214l-.776,1.345h1.56A1.56,1.56,0,0,1,287.83-532.143Z" transform="translate(-279.263 539.551)"/></g></g></g></svg>