<svg xmlns="http://www.w3.org/2000/svg" width="42" height="44" viewBox="0 0 42 44"><defs><style>.a{fill:#040206;}.b{fill:#232323;}.c{fill:#fff;}</style></defs><g transform="translate(-241.725 -47.784)"><circle class="a" cx="21" cy="21" r="21" transform="translate(241.725 49.784)"/><circle class="b" cx="21" cy="21" r="21" transform="translate(241.725 47.784)"/></g><g transform="translate(-241.725 -47.001)"><path class="c" d="M256.9,71.992a9.587,9.587,0,0,1-.944-.834,7.35,7.35,0,0,1-6.7-.112c-1.279,1.3-1.925,3.021-.81,3.741a8.372,8.372,0,0,0,4.416,1.146,9.646,9.646,0,0,0,1.425-.118A9.536,9.536,0,0,1,256.9,71.992Z"/><path class="c" d="M252.726,69.911a5.388,5.388,0,0,0,1.96-.372,9.417,9.417,0,0,1,0-10.076,5.408,5.408,0,1,0-1.96,10.448Zm-2.515-6.853a1.425,1.425,0,0,1,.718.2l-.718,1.244h1.443a1.443,1.443,0,1,1-1.443-1.443Z"/><path class="c" d="M269.491,71.158a9.466,9.466,0,0,1-.9.8,8.9,8.9,0,0,1,2.578,3.854,9.58,9.58,0,0,0,1.421.117A8.372,8.372,0,0,0,277,74.787c1.115-.72.47-2.44-.81-3.741a7.35,7.35,0,0,1-6.7.112Z"/><path class="c" d="M272.725,59.091a5.389,5.389,0,0,0-1.961.372,9.417,9.417,0,0,1,0,10.076,5.408,5.408,0,1,0,1.961-10.448Zm2.514,6.853a1.443,1.443,0,1,1,.719-2.687l-.719,1.244h1.443A1.443,1.443,0,0,1,275.239,65.944Z"/><path class="c" d="M266.958,73.185c-1.211,1.063-2.246,2.235-4.232,2.235s-2.994-1.16-4.2-2.206c-2.166,1.834-3.448,4.656-1.732,5.764a11.6,11.6,0,0,0,6.123,1.589,11.071,11.071,0,0,0,5.667-1.408C270.3,78.109,269.307,75.093,266.958,73.185Z"/><path class="c" d="M255.225,64.5a7.5,7.5,0,1,0,7.5-7.5A7.5,7.5,0,0,0,255.225,64.5Zm10.986-2a1.981,1.981,0,0,1,1,.275l-1,1.725h2a2,2,0,1,1-2-2Zm-6.972,4a2,2,0,1,1,1-3.725l-1,1.725h2A2,2,0,0,1,259.239,66.5Z"/></g></svg>