<svg xmlns="http://www.w3.org/2000/svg" xmlns:xlink="http://www.w3.org/1999/xlink" width="42" height="44" viewBox="0 0 42 44"><defs><style>.a{fill:#606060;}.b{fill:#fff;}.c{filter:url(#a);}</style><filter id="a" x="0" y="0" width="42" height="44" filterUnits="userSpaceOnUse"><feOffset dy="2" input="SourceAlpha"/><feGaussianBlur result="b"/><feFlood flood-color="#393939"/><feComposite operator="in" in2="b"/><feComposite in="SourceGraphic"/></filter></defs><g class="c" transform="matrix(1, 0, 0, 1, 0, 0)"><circle class="a" cx="21" cy="21" r="21"/></g><g transform="translate(12.713 7.46)"><path class="b" d="M183.5-398.685c-1.375,1.206-2.548,2.536-4.8,2.536s-3.4-1.316-4.762-2.5c-2.457,2.08-3.911,5.281-1.965,6.538a13.157,13.157,0,0,0,6.946,1.8,12.562,12.562,0,0,0,6.43-1.6C187.291-393.1,186.163-396.519,183.5-398.685Z" transform="translate(-170.195 417.388)"/><path class="b" d="M191.263-418.308a8.5,8.5,0,0,0-8.5-8.5,8.5,8.5,0,0,0-8.5,8.5,8.5,8.5,0,0,0,7.172,8.4v-5.94h-2.158v-2.457h2.158v-1.873a3,3,0,0,1,3.211-3.307,13.082,13.082,0,0,1,1.9.166v2.092h-1.072a1.228,1.228,0,0,0-1.385,1.328v1.595h2.357l-.377,2.457h-1.98v5.94A8.5,8.5,0,0,0,191.263-418.308Z" transform="translate(-174.263 426.808)"/></g></svg>