<svg xmlns="http://www.w3.org/2000/svg" width="42" height="44" viewBox="0 0 42 44"><defs><style>.a{fill:#393939;}.b{fill:#606060;}.c30{fill:#fff;}</style></defs><g transform="translate(-303.965 370.463)"><circle class="a" cx="21" cy="21" r="21" transform="translate(303.965 -368.463)"/><circle class="b" cx="21" cy="21" r="21" transform="translate(303.965 -370.463)"/><g transform="translate(-363.465 -689.235)"><path class="c30" d="M692.783,345.934c-1.379,1.21-2.556,2.544-4.817,2.544s-3.407-1.32-4.778-2.51c-2.464,2.086-3.924,5.3-1.971,6.559a13.2,13.2,0,0,0,6.968,1.809,12.6,12.6,0,0,0,6.451-1.6C696.588,351.539,695.456,348.107,692.783,345.934Z"/><path class="c30" d="M694.568,332.78a3.046,3.046,0,0,1-2.928-3.04,3.013,3.013,0,0,1,.278-1.251,8.534,8.534,0,1,0,4.583,7.562c0-.191-.016-.378-.028-.566A3.045,3.045,0,0,1,694.568,332.78Zm-8.961,4.88a2.276,2.276,0,1,1-.476-3.573L684,336.051h2.277A2.27,2.27,0,0,1,685.607,337.66Zm6.326.667a2.277,2.277,0,0,1,0-4.553,2.247,2.247,0,0,1,1.133.314l-1.133,1.963h2.276A2.276,2.276,0,0,1,691.933,338.327Z"/><path class="c30" d="M700.534,328.7h-1.883v-1.883a1.043,1.043,0,0,0-2.085,0V328.7h-1.883a1.043,1.043,0,1,0,0,2.085h1.883v1.883a1.043,1.043,0,1,0,2.085,0v-1.883h1.883a1.043,1.043,0,0,0,0-2.085Z"/></g></g></svg>