<svg xmlns="http://www.w3.org/2000/svg" width="63" height="66" viewBox="0 0 63 66"><defs><style>.a37{fill:#040206;}.b37{fill:#232323;}.c37{fill:#fff;}.d37{fill:none;stroke:#fff;stroke-linecap:round;stroke-width:2px;}</style></defs><circle class="a37" cx="31.5" cy="31.5" r="31.5" transform="translate(0 3)"/><circle class="b37" cx="31.5" cy="31.5" r="31.5"/><g transform="translate(19.101 14.462)"><path class="c37" d="M65.885,131.621a10.7,10.7,0,0,0,10.7-10.7,1.4,1.4,0,0,0-2.789-.2,1.336,1.336,0,0,0,0,.2,7.913,7.913,0,0,1-7.913,7.9H62.747a7.913,7.913,0,0,1-7.913-7.9,1.4,1.4,0,1,0-2.786-.2,1.334,1.334,0,0,0,0,.2,10.7,10.7,0,0,0,10.7,10.7h.171v2.1H57.163a1.4,1.4,0,0,0,0,2.786H71.472a1.4,1.4,0,0,0,0-2.786H65.715v-2.1Z" transform="translate(-52.043 -103.636)"/><rect class="c37" width="14.3" height="19.858" rx="2.126" transform="translate(5.119 0)"/></g><line class="d37" x2="34.364" y2="34.364" transform="translate(14.194 15.478)"/></svg>