<svg xmlns="http://www.w3.org/2000/svg" width="42" height="44" viewBox="0 0 42 44"><defs><style>.a31{fill:#393939;}.b31{fill:#606060;}.c31{fill:#fff;}</style></defs><circle class="a31" cx="21" cy="21" r="21" transform="translate(0 2)"/><circle class="b31" cx="21" cy="21" r="21"/><g transform="translate(-714.965 -328.317)"><path class="c31" d="M740.783,355.714c-1.379,1.209-2.556,2.544-4.817,2.544s-3.407-1.321-4.778-2.511c-2.464,2.087-3.924,5.3-1.971,6.56a13.2,13.2,0,0,0,6.968,1.809,12.607,12.607,0,0,0,6.451-1.6C744.588,361.319,743.456,357.886,740.783,355.714Z"/><path class="c31" d="M744.235,343.748a3.013,3.013,0,0,1-2.589-4.277,8.6,8.6,0,1,0,2.589,4.277Zm-10.628,3.692a2.276,2.276,0,1,1-.476-3.573L732,345.83h2.277A2.272,2.272,0,0,1,733.607,347.44Zm6.326.667a2.277,2.277,0,0,1,0-4.553,2.247,2.247,0,0,1,1.133.313l-1.133,1.963h2.276A2.276,2.276,0,0,1,739.933,348.107Z"/><path class="c31" d="M747.948,338.654l1.331-1.332a1.042,1.042,0,0,0-1.474-1.474l-1.331,1.332-1.332-1.332a1.042,1.042,0,0,0-1.474,1.474L745,338.654l-1.332,1.331a1.042,1.042,0,1,0,1.474,1.474l1.332-1.331,1.331,1.331a1.042,1.042,0,0,0,1.474-1.474Z"/></g></svg>