<svg id="Group_366" data-name="Group 366" xmlns="http://www.w3.org/2000/svg" width="42" height="44" viewBox="0 0 42 44">
  <circle id="Ellipse_47" data-name="Ellipse 47" cx="21" cy="21" r="21" transform="translate(0 2)" fill="#393939"/>
  <circle id="Ellipse_48" data-name="Ellipse 48" cx="21" cy="21" r="21" fill="#606060"/>
  <g id="Group_362" data-name="Group 362" transform="translate(-792 -390)">
    <path id="Path_170" data-name="Path 170" d="M806.676,421.581a12.305,12.305,0,0,0,6.494,1.686,11.747,11.747,0,0,0,6.013-1.494l.2-.15-4.319-4.319a4.454,4.454,0,0,1-2.1.5c-2.108,0-3.176-1.231-4.454-2.34C806.215,417.412,804.855,420.406,806.676,421.581Z" fill="#fff"/>
    <path id="Path_171" data-name="Path 171" d="M811.85,414.093l-6.754-6.755A7.949,7.949,0,0,0,811.85,414.093Z" fill="#fff"/>
    <path id="Path_172" data-name="Path 172" d="M812.965,398.267a7.928,7.928,0,0,0-5.864,2.592l11.228,11.228a7.947,7.947,0,0,0-5.364-13.82Zm5.82,7.956a2.144,2.144,0,1,1-1.065-1.83l-1.056,1.83Z" fill="#fff"/>
    <path id="Path_173" data-name="Path 173" d="M813,394a17,17,0,1,0,17,17A17,17,0,0,0,813,394Zm8.264,29.506a14.986,14.986,0,0,1-20.77-20.77,15.136,15.136,0,0,1,1.231-1.6l21.136,21.136A15.144,15.144,0,0,1,821.264,423.506Zm3.011-2.645-21.136-21.136a15.144,15.144,0,0,1,1.6-1.231,14.986,14.986,0,0,1,20.77,20.77A15.136,15.136,0,0,1,824.275,420.861Z" fill="#fff"/>
  </g>
</svg>
