<svg xmlns="http://www.w3.org/2000/svg" width="28.875" height="39.247" viewBox="0 0 28.875 39.247"><defs><style>.a{fill:#fff;}</style></defs><path class="a" d="M963.778,515.477v23.07a1.509,1.509,0,0,0,1.509,1.509h.275v5.627a1.51,1.51,0,0,0,1.509,1.509h13.037a1.51,1.51,0,0,0,1.509-1.509v-5.627h-.392a3.207,3.207,0,0,0,2.75-1.556l2.273-3.79,6.08-8.106a1.614,1.614,0,0,0-1.377-2.577,6.416,6.416,0,0,0-4.632,2.364l-2.918,3.6V513.469a1.51,1.51,0,0,0-1.509-1.509h-.55a1.51,1.51,0,0,0-1.509,1.509V524H978.05V509.455a1.509,1.509,0,0,0-1.509-1.509h-.549a1.509,1.509,0,0,0-1.51,1.509V524H972.7v-12.54a1.509,1.509,0,0,0-1.51-1.509h-.548a1.509,1.509,0,0,0-1.509,1.509V524h-1.784v-8.525a1.509,1.509,0,0,0-1.509-1.509h-.55A1.509,1.509,0,0,0,963.778,515.477Zm8.165,22.092a7.9,7.9,0,0,1,7.891-7.89.755.755,0,1,1,0,1.509,6.388,6.388,0,0,0-6.382,6.38v2.489a.755.755,0,1,1-1.509,0Z" transform="translate(-963.778 -507.946)"/></svg>