<svg xmlns="http://www.w3.org/2000/svg" width="42" height="44" viewBox="0 0 42 44"><defs><style>.a373{fill:#040206;}.b373{fill:#232323;}.c373{fill:#fff;}</style></defs><circle class="a373" cx="21" cy="21" r="21" transform="translate(0 2)"/><circle class="b373" cx="21" cy="21" r="21"/><g transform="translate(-950 -500)"><path class="c373" d="M963.778,512.935v15.284a1,1,0,0,0,1,1h.182v3.728a1,1,0,0,0,1,1H974.6a1,1,0,0,0,1-1v-3.728h-.26a2.125,2.125,0,0,0,1.822-1.031l1.506-2.511,4.028-5.37a1.069,1.069,0,0,0-.912-1.707,4.251,4.251,0,0,0-3.069,1.566l-1.933,2.384V511.605a1,1,0,0,0-1-1h-.364a1,1,0,0,0-1,1v6.978h-1.182v-9.637a1,1,0,0,0-1-1h-.364a1,1,0,0,0-1,1v9.637h-1.182v-8.308a1,1,0,0,0-1-1h-.363a1,1,0,0,0-1,1v8.308h-1.182v-5.648a1,1,0,0,0-1-1h-.364A1,1,0,0,0,963.778,512.935Zm5.409,14.636a5.234,5.234,0,0,1,5.228-5.227.5.5,0,0,1,0,1,4.232,4.232,0,0,0-4.228,4.227v1.649a.5.5,0,0,1-1,0Z"/></g></svg>