<svg xmlns="http://www.w3.org/2000/svg" width="26" height="27.73" viewBox="0 0 26 27.73"><defs><style>.a19{fill:#fff;}</style></defs><g transform="translate(-312.64 -55.425)"><path class="a19" d="M335.618,71.1a9.681,9.681,0,0,0,0-3.622l2.548-2.023a1.33,1.33,0,0,0,.284-1.711l-1.6-2.776a1.329,1.329,0,0,0-1.623-.611l-3.028,1.2a10.15,10.15,0,0,0-3.134-1.808l-.478-3.223a1.331,1.331,0,0,0-1.341-1.1h-3.206a1.331,1.331,0,0,0-1.341,1.1l-.477,3.223a10.151,10.151,0,0,0-3.134,1.808l-3.028-1.2a1.329,1.329,0,0,0-1.623.611l-1.6,2.776a1.329,1.329,0,0,0,.283,1.711l2.549,2.023a9.681,9.681,0,0,0,0,3.622l-2.549,2.022a1.33,1.33,0,0,0-.283,1.711l1.6,2.777a1.331,1.331,0,0,0,1.623.611l3.028-1.2a10.151,10.151,0,0,0,3.134,1.808l.477,3.222a1.331,1.331,0,0,0,1.341,1.1h3.206a1.331,1.331,0,0,0,1.341-1.1l.478-3.222a10.15,10.15,0,0,0,3.134-1.808l3.028,1.2a1.331,1.331,0,0,0,1.623-.611l1.6-2.777a1.33,1.33,0,0,0-.284-1.711Zm-9.978,5.172a6.984,6.984,0,1,1,6.985-6.984A6.983,6.983,0,0,1,325.64,76.274Z" transform="translate(0 0)"/></g></svg>