<svg xmlns="http://www.w3.org/2000/svg" width="63" height="66" viewBox="0 0 63 66"><defs><style>.a24{fill:#040206;}.b24{fill:#232323;}.c24{fill:#fff;}</style></defs><g transform="translate(0 0)"><circle class="a24" cx="31.5" cy="31.5" r="31.5" transform="translate(0 3)"/><circle class="b24" cx="31.5" cy="31.5" r="31.5" transform="translate(0 0)"/><g transform="translate(13.012 11.782)"><path class="c24" d="M345.317,77.72a13.77,13.77,0,0,0,0-5.151l3.624-2.877a1.891,1.891,0,0,0,.4-2.433l-2.28-3.948a1.89,1.89,0,0,0-2.309-.868l-4.306,1.7a14.436,14.436,0,0,0-4.456-2.571l-.68-4.584a1.893,1.893,0,0,0-1.907-1.564h-4.56a1.893,1.893,0,0,0-1.906,1.564l-.678,4.584a14.436,14.436,0,0,0-4.456,2.571l-4.307-1.7a1.89,1.89,0,0,0-2.309.868l-2.28,3.948a1.891,1.891,0,0,0,.4,2.433l3.626,2.877a13.768,13.768,0,0,0,0,5.151L313.313,80.6a1.891,1.891,0,0,0-.4,2.433l2.28,3.949a1.893,1.893,0,0,0,2.309.868l4.307-1.7a14.436,14.436,0,0,0,4.456,2.571l.678,4.582a1.893,1.893,0,0,0,1.906,1.565h4.56a1.893,1.893,0,0,0,1.907-1.565l.68-4.582a14.436,14.436,0,0,0,4.456-2.571l4.306,1.7a1.894,1.894,0,0,0,2.309-.868l2.28-3.949a1.892,1.892,0,0,0-.4-2.433Zm-14.19,7.356a9.932,9.932,0,1,1,9.933-9.932A9.931,9.931,0,0,1,331.127,85.076Z" transform="translate(-312.64 -55.425)"/></g></g></svg>