<svg xmlns="http://www.w3.org/2000/svg" width="42" height="44" viewBox="0 0 42 44"><defs><style>.a9{fill:#393939;}.b9{fill:#606060;}.c9{fill:none;}.d9{fill:#fff;}</style></defs><g transform="translate(-210 -207)"><circle class="a9" cx="21" cy="21" r="21" transform="translate(210 209)"/><circle class="b9" cx="21" cy="21" r="21" transform="translate(210 207)"/><g transform="translate(-67.302 368.771)"><path class="c9" d="M311.225-139.744a1.185,1.185,0,0,0-.037-.225,2.066,2.066,0,0,1-.023.225Z"/><path class="d9" d="M305.607-150.25v-2.459a.538.538,0,0,0-.538-.539.539.539,0,0,0-.539.539v1.51A10.338,10.338,0,0,1,305.607-150.25Z"/><path class="d9" d="M290.54-150.1a.539.539,0,0,0,.539-.539v-2.713a.538.538,0,0,0-.539-.538.538.538,0,0,0-.538.538v2.713A.538.538,0,0,0,290.54-150.1Z"/><path class="d9" d="M302.056-131.449a2.142,2.142,0,0,1,1.572.69c.661-.11,1.27-.236,1.824-.373a6.167,6.167,0,0,0-1.035-2.219,36.3,36.3,0,0,1-4.5.462,4.541,4.541,0,0,1-1.617.29,4.559,4.559,0,0,1-1.62-.29,36.325,36.325,0,0,1-4.409-.447,2.151,2.151,0,0,1,.94,1.778v.838a32.724,32.724,0,0,0,5.088.379c.668,0,1.3-.023,1.911-.055A2.147,2.147,0,0,1,302.056-131.449Z"/><path class="d9" d="M306.379-143.1a8.077,8.077,0,0,0-8.077-8.077,8.077,8.077,0,0,0-8.077,8.077,8.036,8.036,0,0,0,2.087,5.4c.554.108,1.152.2,1.79.282a2.147,2.147,0,0,1,2.06-1.56,2.149,2.149,0,0,1,2.12,1.814h.02a32.317,32.317,0,0,0,5.5-.445v-2.18a2.154,2.154,0,0,1,2.154-2.154,2.142,2.142,0,0,1,.323.033A8.106,8.106,0,0,0,306.379-143.1Zm-11.832,2.476a2.154,2.154,0,0,1-2.154-2.154,2.154,2.154,0,0,1,2.154-2.154,2.126,2.126,0,0,1,1.072.3l-1.072,1.857H296.7A2.154,2.154,0,0,1,294.547-140.625Zm7.509,0a2.154,2.154,0,0,1-2.154-2.154,2.154,2.154,0,0,1,2.154-2.154,2.126,2.126,0,0,1,1.072.3l-1.072,1.857h2.154A2.154,2.154,0,0,1,302.056-140.625Z"/><path class="d9" d="M298.3-134.468c6.787,0,14-1.849,14-5.276a2.9,2.9,0,0,0-1.1-2.144v1.82c0,.034-.008.066-.01.1a1.185,1.185,0,0,1,.037.225c0,1.145-1.773,2.364-4.729,3.192v-3.234a.538.538,0,0,0-.538-.539.538.538,0,0,0-.538.539v3.5a32.527,32.527,0,0,1-7.118.736c-.548,0-1.079-.015-1.6-.037v-1.239a.538.538,0,0,0-.539-.538.537.537,0,0,0-.538.538v1.18a23.89,23.89,0,0,1-7.578-1.63.515.515,0,0,0,.025-.124v-6.242a.538.538,0,0,0-.538-.538.538.538,0,0,0-.539.538v5.832c-1.035-.614-1.615-1.288-1.615-1.939v-2.118a2.88,2.88,0,0,0-1.077,2.118C284.3-136.317,291.515-134.468,298.3-134.468Z"/><path class="d9" d="M298.3-127.649c6.787,0,14-1.849,14-5.276a3.158,3.158,0,0,0-1.508-2.471c-.353.2-.733.386-1.131.562,1,.606,1.562,1.269,1.562,1.909,0,1.586-3.39,3.313-8.631,3.946v-.317a.538.538,0,0,0-.538-.538.538.538,0,0,0-.539.538v.427h0c-1.017.089-2.087.143-3.215.143a33.06,33.06,0,0,1-6.7-.646v-2.186a.538.538,0,0,0-.539-.538.538.538,0,0,0-.538.538v1.936c-3.2-.828-5.143-2.105-5.143-3.3,0-.64.558-1.3,1.561-1.909-.4-.176-.777-.362-1.13-.562a3.156,3.156,0,0,0-1.508,2.471C284.3-129.5,291.515-127.649,298.3-127.649Z"/><path class="d9" d="M309.044-143.237a.538.538,0,0,0-.538.538v2.631a.538.538,0,0,0,.538.538.538.538,0,0,0,.539-.538V-142.7A.538.538,0,0,0,309.044-143.237Z"/><path class="d9" d="M309.044-145.471a.538.538,0,0,0,.539-.538v-.4a.539.539,0,0,0-.539-.539.538.538,0,0,0-.538.539v.4A.538.538,0,0,0,309.044-145.471Z"/><path class="d9" d="M287.533-149.1a.539.539,0,0,0-.539.539v.394a.539.539,0,0,0,.539.539.538.538,0,0,0,.538-.539v-.394A.538.538,0,0,0,287.533-149.1Z"/></g></g></svg>