<svg xmlns="http://www.w3.org/2000/svg" width="42" height="44" viewBox="0 0 42 44"><defs><style>.a{fill:#393939;}.b{fill:#606060;}.c,.d,.e,.f{fill:#fff;}.c,.d{stroke-miterlimit:10;}.d{stroke:#606060;stroke-width:2px;}.g,.h{stroke:none;}.h{fill:#606060;}.i{fill:none;}</style></defs><g transform="translate(-303.965 423.683)"><circle class="a" cx="21" cy="21" r="21" transform="translate(303.965 -421.683)"/><circle class="b" cx="21" cy="21" r="21" transform="translate(303.965 -423.683)"/><g class="c"><path class="g" d="M 325.1849975585938 -386.8840026855469 C 322.3479614257812 -386.8840026855469 319.6103820800781 -387.6017150878906 317.6741943359375 -388.8531494140625 C 316.8522338867188 -389.3838806152344 316.3835144042969 -390.19091796875 316.319091796875 -391.186767578125 C 316.2035827636719 -392.9721984863281 317.4685974121094 -395.260009765625 319.5418395996094 -397.0152282714844 L 320.1958312988281 -397.5688781738281 L 320.8431701660156 -397.0074768066406 C 321.0223999023438 -396.85205078125 321.1971435546875 -396.6951293945312 321.3661499023438 -396.5433654785156 C 322.4868469238281 -395.5369262695312 323.3720397949219 -394.7420043945312 324.9660034179688 -394.7420043945312 C 326.5769348144531 -394.7420043945312 327.4845275878906 -395.5621032714844 328.6336059570312 -396.6004028320312 C 328.7922058105469 -396.7437438964844 328.9562377929688 -396.8919372558594 329.1234436035156 -397.0386352539062 L 329.7583618164062 -397.5957641601562 L 330.4137878417969 -397.0629272460938 C 331.3997802734375 -396.2613830566406 332.2239685058594 -395.2855834960938 332.7972106933594 -394.240966796875 C 333.3925476074219 -393.1561279296875 333.6734619140625 -392.0769958496094 333.6096496582031 -391.1202087402344 C 333.5379333496094 -390.0455322265625 333.0224304199219 -389.1622619628906 332.1581115722656 -388.6331176757812 C 330.3112182617188 -387.5050048828125 327.8350830078125 -386.8840026855469 325.1849975585938 -386.8840026855469 Z"/><path class="h" d="M 329.7829895019531 -396.2869873046875 C 328.4039916992188 -395.0769958496094 327.2269897460938 -393.7420043945312 324.9660034179688 -393.7420043945312 C 322.7040100097656 -393.7420043945312 321.5589904785156 -395.06298828125 320.18798828125 -396.2520141601562 C 317.7239990234375 -394.1659851074219 316.2640075683594 -390.9540100097656 318.2170104980469 -389.6929931640625 C 321.7274475097656 -387.4241638183594 327.9211730957031 -387.2168884277344 331.635986328125 -389.4859924316406 C 333.5880126953125 -390.6809997558594 332.4559936523438 -394.114013671875 329.7829895019531 -396.2869873046875 M 329.7337341308594 -398.904541015625 L 331.0445861816406 -397.8388977050781 C 333.3584289550781 -395.9578857421875 334.7569274902344 -393.2945251464844 334.607421875 -391.0536499023438 C 334.5135192871094 -389.6460571289062 333.8290710449219 -388.4835510253906 332.6802368164062 -387.7802429199219 C 330.6777038574219 -386.5570678710938 328.0164489746094 -385.8840026855469 325.1849975585938 -385.8840026855469 C 322.1604919433594 -385.8840026855469 319.2250671386719 -386.6600952148438 317.1313781738281 -388.0132751464844 C 316.0487670898438 -388.7123107910156 315.4056396484375 -389.8165893554688 315.3211669921875 -391.1222229003906 C 315.2482604980469 -392.2493591308594 315.6004333496094 -393.5133666992188 316.3396301269531 -394.7775573730469 C 316.9736022949219 -395.8617858886719 317.8574523925781 -396.8994750976562 318.8956909179688 -397.7784423828125 L 320.2036743164062 -398.8857727050781 L 321.4983520507812 -397.762939453125 C 321.6841125488281 -397.6018371582031 321.8621215820312 -397.4419860839844 322.0342712402344 -397.2873840332031 C 323.1964721679688 -396.2436828613281 323.8065795898438 -395.7420043945312 324.9660034179688 -395.7420043945312 C 326.1374816894531 -395.7420043945312 326.7993469238281 -396.290771484375 327.9631652832031 -397.3423767089844 C 328.1244201660156 -397.4880981445312 328.2911987304688 -397.6387939453125 328.4638977050781 -397.7903137207031 L 329.7337341308594 -398.904541015625 Z"/></g><g class="d" transform="translate(316.429 -414.706)"><circle class="g" cx="8.536" cy="8.536" r="8.536"/><circle class="i" cx="8.536" cy="8.536" r="9.536"/></g><circle class="b" cx="2.276" cy="2.276" r="2.276" transform="translate(318.721 -408.446)"/><path class="e" d="M321-406.17l1.707-2.957a3.407,3.407,0,0,1,1.25,1.25,3.412,3.412,0,0,1,.458,1.707Z"/><circle class="b" cx="2.276" cy="2.276" r="2.276" transform="translate(326.657 -408.446)"/><path class="e" d="M328.933-406.17l1.707-2.957a3.422,3.422,0,0,1,1.25,1.25,3.412,3.412,0,0,1,.458,1.707Z"/><g class="f"><path class="g" d="M 333.4054870605469 -409.2353820800781 C 332.8598937988281 -409.2353820800781 332.3468627929688 -409.4479064941406 331.9609069824219 -409.8338623046875 C 331.1646118164062 -410.6301574707031 331.1646118164062 -411.9258117675781 331.9608764648438 -412.7221069335938 L 332.5855102539062 -413.3462829589844 L 331.9608764648438 -413.9708862304688 C 331.5751647949219 -414.3565979003906 331.3627319335938 -414.8694458007812 331.3627319335938 -415.4150085449219 C 331.3627319335938 -415.9605407714844 331.5751647949219 -416.473388671875 331.9608764648438 -416.859130859375 C 332.3466491699219 -417.2448425292969 332.8594970703125 -417.4572448730469 333.4049987792969 -417.4572448730469 C 333.9505004882812 -417.4572448730469 334.4633483886719 -417.2448425292969 334.8490905761719 -416.859130859375 L 335.4737243652344 -416.2344970703125 L 336.0976257324219 -416.8588562011719 C 336.483642578125 -417.2448425292969 336.9964904785156 -417.4572448730469 337.5420227050781 -417.4572448730469 C 338.0875244140625 -417.4572448730469 338.6004028320312 -417.2448425292969 338.986083984375 -416.859130859375 C 339.3720092773438 -416.4741516113281 339.5850219726562 -415.9609680175781 339.5849914550781 -415.4149475097656 C 339.5849914550781 -414.8689575195312 339.3719787597656 -414.3558044433594 338.9851989746094 -413.9700012207031 L 338.3619384765625 -413.3462829589844 L 338.986083984375 -412.7221374511719 C 339.3720092773438 -412.337158203125 339.5850219726562 -411.823974609375 339.5849914550781 -411.2779846191406 C 339.5849914550781 -410.7319946289062 339.3719787597656 -410.2188110351562 338.9852294921875 -409.8330078125 C 338.6004028320312 -409.4481811523438 338.0875244140625 -409.2357482910156 337.5420227050781 -409.2357482910156 C 336.9964904785156 -409.2357482910156 336.483642578125 -409.4481506347656 336.097900390625 -409.8338623046875 L 335.4737243652344 -410.4580383300781 L 334.8488464355469 -409.8336181640625 C 334.4643859863281 -409.4482421875 333.9513854980469 -409.2353820800781 333.4054870605469 -409.2353820800781 Z"/><path class="h" d="M 333.4054870605469 -410.2353820800781 C 333.6720886230469 -410.2353820800781 333.9386291503906 -410.3371276855469 334.1419982910156 -410.5409851074219 L 335.4739990234375 -411.8720092773438 L 336.8049926757812 -410.5409851074219 C 337.2119750976562 -410.1339721679688 337.8720092773438 -410.134033203125 338.2789916992188 -410.5409851074219 C 338.68701171875 -410.947998046875 338.68701171875 -411.6080017089844 338.2789916992188 -412.0150146484375 L 336.947998046875 -413.3460083007812 L 338.2789916992188 -414.6780090332031 C 338.68701171875 -415.0849914550781 338.68701171875 -415.7449951171875 338.2789916992188 -416.1520080566406 C 337.8720703125 -416.5589904785156 337.2120361328125 -416.5590209960938 336.8049926757812 -416.1520080566406 L 335.4739990234375 -414.8200073242188 L 334.1419982910156 -416.1520080566406 C 333.7350158691406 -416.5589904785156 333.0749816894531 -416.5589904785156 332.6679992675781 -416.1520080566406 C 332.260986328125 -415.7449951171875 332.260986328125 -415.0849914550781 332.6679992675781 -414.6780090332031 L 334 -413.3460083007812 L 332.6679992675781 -412.0150146484375 C 332.260986328125 -411.6080017089844 332.260986328125 -410.947998046875 332.6679992675781 -410.5409851074219 C 332.8716430664062 -410.3373718261719 333.1385803222656 -410.2353820800781 333.4054870605469 -410.2353820800781 M 333.4054870605469 -408.2353820800781 C 332.5928039550781 -408.2353820800781 331.8286437988281 -408.5519409179688 331.2538146972656 -409.1267395019531 C 330.0948181152344 -410.2857360839844 330.0683288574219 -412.1549377441406 331.174072265625 -413.3464965820312 C 330.6499938964844 -413.91064453125 330.3627319335938 -414.6407165527344 330.3627319335938 -415.4150085449219 C 330.3627319335938 -416.2276306152344 330.67919921875 -416.9916381835938 331.2537841796875 -417.5662231445312 C 331.8284606933594 -418.1408386230469 332.5924072265625 -418.4572448730469 333.4049987792969 -418.4572448730469 C 334.1792297363281 -418.4572448730469 334.9093322753906 -418.1699829101562 335.4735107421875 -417.6459350585938 C 336.0381469726562 -418.170166015625 336.7680358886719 -418.4572448730469 337.5420227050781 -418.4572448730469 C 338.3546447753906 -418.4572448730469 339.1186218261719 -418.1408081054688 339.6932067871094 -417.5662231445312 C 340.2676696777344 -416.9931640625 340.5850219726562 -416.2285461425781 340.5849914550781 -415.4149475097656 C 340.5849914550781 -414.640625 340.2975463867188 -413.9107055664062 339.7730407714844 -413.3465576171875 C 340.2969970703125 -412.7836608886719 340.5850219726562 -412.0530395507812 340.5849914550781 -411.2779846191406 C 340.5849914550781 -410.4644165039062 340.2676696777344 -409.6997985839844 339.6914367675781 -409.1250305175781 C 339.11865234375 -408.5521850585938 338.3546752929688 -408.2357482910156 337.5420227050781 -408.2357482910156 C 336.767822265625 -408.2357482910156 336.0377807617188 -408.52294921875 335.4736022949219 -409.0469360351562 C 334.9112854003906 -408.5233764648438 334.1806640625 -408.2353820800781 333.4054870605469 -408.2353820800781 Z"/></g></g></svg>