<svg xmlns="http://www.w3.org/2000/svg" width="42" height="42">
<defs><style>.b1113{fill:#232323;}.c1113{fill:#fff;}.c1113,.d1113{stroke:#232323;stroke-miterlimit:10;}.d1113{fill:none;}</style></defs>
<g transform="translate(-850 -500)">
<path class="c1113" d="M0,0H18.7a0,0,0,0,1,0,0V18.883a3.259,3.259,0,0,1-3.259,3.259H3.259A3.259,3.259,0,0,1,0,18.883V0A0,0,0,0,1,0,0Z" transform="translate(861.652 511.485)"/>
<rect class="c1113" width="5.02" height="3.111" transform="translate(861.652 508.374)"/>
<rect class="c1113" width="5.02" height="3.111" transform="translate(875.328 508.374)"/>
<path class="d1113" d="M880.348,511.485l-2.255,4.723a5.9,5.9,0,0,1-5.405,3.019h-3.376a5.9,5.9,0,0,1-5.405-3.019l-2.255-4.723"/>
<path class="d1113" d="M877.186,533.106v-7.231a1.248,1.248,0,0,0-1.289-1.2H866.1a1.248,1.248,0,0,0-1.289,1.2v7.231"/>
</g></svg>