<svg xmlns="http://www.w3.org/2000/svg" width="39.548" height="35.534" viewBox="0 0 39.548 35.534"><defs><style>.a231{fill:none;}.b231{fill:#fff;}</style></defs><g transform="translate(-1038.899 -583.698)"><path class="a231" d="M1054.631,605.531v-.4l-.237.236C1054.476,605.417,1054.552,605.476,1054.631,605.531Z" transform="translate(7.348 10.165)"/><path class="b231" d="M1059.082,601.948v10.477h3.407V597.78a12.6,12.6,0,0,1-2.2,2.96Z" transform="translate(9.571 6.678)"/><path class="b231" d="M1062.3,615.12c0-1.129-.942-2.509-2.04-2.509h-1.785a.737.737,0,0,1-.737-.737,4.924,4.924,0,0,0-4.918-4.919h-2.381a.737.737,0,0,1,0-1.474h2.381a6.4,6.4,0,0,1,6.349,5.657h.907l1.9-1.9V599.149a.737.737,0,0,1,1.474,0v14.44a4.1,4.1,0,0,1,.32,1.532.769.769,0,0,1-.025.13h3.431v-16.1a.737.737,0,0,1,1.474,0v3.408l.164-.164a11.075,11.075,0,0,0,3.243-7.831v-.212a14.7,14.7,0,0,1-3.466.364c-2.767,0-4.567-.513-5.76-1.33a2.8,2.8,0,0,1-5.164-1.135,26.373,26.373,0,0,0-7.079,4.044l-1.437,1.153a14.855,14.855,0,0,0-4.484,6.1c-.314-.5-.625-1.041-.924-1.623a15.079,15.079,0,0,1-1.846-8.213,1.473,1.473,0,0,0-1.331-1.6,1.456,1.456,0,0,0-1.605,1.33c-.455,4.9,1.62,9.285,3.523,12.183.422.644.831,1.212,1.207,1.7a14.843,14.843,0,0,0-.106,1.741,6.067,6.067,0,0,0,6.068,6.066H1062.3Z" transform="translate(0 3.982)"/><path class="b231" d="M1068.089,586.711h0v.267c-.065-.1-.122-.208-.19-.305a.548.548,0,0,1-.344-.416,6.859,6.859,0,0,0-10.689,0,.547.547,0,0,1-.342.414c-.069.1-.127.2-.19.305v-.267h0a3.981,3.981,0,0,0-3.976,3.976v5.192a1.712,1.712,0,0,0,3.423,0v-5.767a.553.553,0,0,1,1.106,0v5.767a2.841,2.841,0,0,1-.043.423c.958.768,2.511,1.234,5,1.277v-2.042a3.563,3.563,0,0,1-1.527-.49.369.369,0,0,1,.391-.625,2.9,2.9,0,0,0,3.007,0,.368.368,0,1,1,.388.627,3.554,3.554,0,0,1-1.521.486v2.042c2.488-.043,4.039-.509,5-1.277a2.673,2.673,0,0,1-.043-.423v-5.767a.553.553,0,0,1,1.106,0v5.767a1.711,1.711,0,1,0,3.423,0v-5.192A3.981,3.981,0,0,0,1068.089,586.711Zm-3.15,2.447a1.389,1.389,0,1,1-1.389,1.389A1.388,1.388,0,0,1,1064.939,589.158Zm-5.454,0a1.389,1.389,0,1,1-1.39,1.389A1.389,1.389,0,0,1,1059.484,589.158Z" transform="translate(6.382)"/></g></svg>