<svg xmlns="http://www.w3.org/2000/svg" width="34.717" height="34.717" viewBox="0 0 34.717 34.717"><defs><style>.a{fill:#fff;}</style></defs><path class="a" d="M826.859,509.5A17.359,17.359,0,0,0,809.5,526.859h0A17.358,17.358,0,1,0,826.859,509.5Zm-4.794,20.632a4.631,4.631,0,0,1-6.546,0h0a4.63,4.63,0,0,1,0-6.547h0a4.615,4.615,0,0,1,5.579-.72l-2.314,3.994h4.628A4.613,4.613,0,0,1,822.065,530.132Zm12.865,1.355a4.63,4.63,0,1,1,2.305-8.622l-2.307,3.993h4.63a4.629,4.629,0,0,1-4.63,4.629Z" transform="translate(-809.5 -509.5)"/></svg>