<svg xmlns="http://www.w3.org/2000/svg" width="40" height="30.585" viewBox="0 0 40 30.585"><defs><style>.a7{fill:#fff;}</style></defs><g transform="translate(-247.315 -57.001)"><path class="a7" d="M259.592,72.274a12.449,12.449,0,0,1-1.225-1.082,9.539,9.539,0,0,1-8.7-.145c-1.66,1.689-2.5,3.921-1.051,4.855a10.866,10.866,0,0,0,5.731,1.487,12.522,12.522,0,0,0,1.849-.153A12.376,12.376,0,0,1,259.592,72.274Z" transform="translate(0.167 4.183)"/><path class="a7" d="M254.338,73.134a6.993,6.993,0,0,0,2.544-.483,12.222,12.222,0,0,1,0-13.077,7.019,7.019,0,1,0-2.544,13.56Zm-3.264-8.894a1.849,1.849,0,0,1,.932.258l-.932,1.615h1.873a1.873,1.873,0,1,1-1.873-1.873Z" transform="translate(0 0.623)"/><path class="a7" d="M269.761,71.191a12.291,12.291,0,0,1-1.175,1.043,11.545,11.545,0,0,1,3.346,5,12.432,12.432,0,0,0,1.844.152,10.866,10.866,0,0,0,5.731-1.487c1.447-.934.61-3.167-1.051-4.855a9.539,9.539,0,0,1-8.7.145Z" transform="translate(6.336 4.183)"/><path class="a7" d="M273.309,59.091a7,7,0,0,0-2.545.483,12.222,12.222,0,0,1,0,13.077,7.019,7.019,0,1,0,2.545-13.56Zm3.263,8.894a1.873,1.873,0,1,1,.933-3.487l-.933,1.615h1.873A1.873,1.873,0,0,1,276.572,67.985Z" transform="translate(6.984 0.623)"/><path class="a7" d="M270.222,73.185c-1.572,1.38-2.915,2.9-5.493,2.9s-3.886-1.506-5.448-2.863c-2.811,2.38-4.475,6.043-2.248,7.481a15.057,15.057,0,0,0,7.947,2.062,14.369,14.369,0,0,0,7.355-1.827C274.562,79.576,273.271,75.661,270.222,73.185Z" transform="translate(2.587 4.821)"/><path class="a7" d="M255.225,66.735A9.734,9.734,0,1,0,264.959,57,9.734,9.734,0,0,0,255.225,66.735Zm14.258-2.6a2.571,2.571,0,0,1,1.293.357l-1.293,2.239h2.6a2.6,2.6,0,1,1-2.6-2.6Zm-9.049,5.191a2.6,2.6,0,1,1,1.293-4.835l-1.293,2.239h2.6A2.6,2.6,0,0,1,260.435,69.331Z" transform="translate(2.356)"/></g></svg>