<svg xmlns="http://www.w3.org/2000/svg" width="63" height="66" viewBox="0 0 63 66"><defs><style>.a27{fill:#040206;}.b27{fill:#232323;}.c27{fill:#fff;}</style></defs><g transform="translate(0 0)"><circle class="a27" cx="31.5" cy="31.5" r="31.5" transform="translate(0 3)"/><circle class="b27" cx="31.5" cy="31.5" r="31.5" transform="translate(0 0)"/><g transform="translate(8.385 15)"><path class="c27" d="M261.416,72.465A14.376,14.376,0,0,1,260,71.214a11.025,11.025,0,0,1-10.05-.168c-1.918,1.951-2.887,4.531-1.215,5.611a12.558,12.558,0,0,0,6.624,1.719A14.469,14.469,0,0,0,257.5,78.2,14.3,14.3,0,0,1,261.416,72.465Z" transform="translate(-247.034 -49.979)"/><path class="c27" d="M255.431,75.321a8.082,8.082,0,0,0,2.94-.558,14.125,14.125,0,0,1,0-15.114,8.113,8.113,0,1,0-2.94,15.672Zm-3.772-10.28a2.137,2.137,0,0,1,1.077.3l-1.077,1.866h2.165a2.165,2.165,0,1,1-2.165-2.164Z" transform="translate(-247.315 -55.956)"/><path class="c27" d="M269.944,71.214a14.2,14.2,0,0,1-1.358,1.206,13.344,13.344,0,0,1,3.867,5.781,14.372,14.372,0,0,0,2.132.175,12.558,12.558,0,0,0,6.624-1.719c1.672-1.08.7-3.66-1.215-5.611a11.025,11.025,0,0,1-10.05.168Z" transform="translate(-236.68 -49.979)"/><path class="c27" d="M273.706,59.091a8.084,8.084,0,0,0-2.942.558,14.125,14.125,0,0,1,0,15.114,8.113,8.113,0,1,0,2.942-15.672Zm3.771,10.28a2.165,2.165,0,1,1,1.078-4.031l-1.078,1.866h2.164A2.164,2.164,0,0,1,277.477,69.37Z" transform="translate(-235.59 -55.956)"/><path class="c27" d="M272.437,73.185c-1.816,1.595-3.369,3.353-6.348,3.353s-4.491-1.74-6.3-3.309c-3.249,2.751-5.172,6.984-2.6,8.646a17.4,17.4,0,0,0,9.185,2.384,16.607,16.607,0,0,0,8.5-2.112C277.453,80.571,275.96,76.047,272.437,73.185Z" transform="translate(-242.972 -48.909)"/><path class="c27" d="M255.225,68.251A11.25,11.25,0,1,0,266.475,57,11.25,11.25,0,0,0,255.225,68.251Zm16.479-3a2.971,2.971,0,0,1,1.494.413L271.7,68.251h3a3,3,0,1,1-3-3Zm-10.458,6a3,3,0,1,1,1.494-5.587l-1.494,2.587h3A3,3,0,0,1,261.246,71.251Z" transform="translate(-243.36 -57.001)"/></g></g></svg>