<svg xmlns="http://www.w3.org/2000/svg" xmlns:xlink="http://www.w3.org/1999/xlink" width="42" height="44" viewBox="0 0 42 44"><defs><style>.a30{fill:#606060;}.b30{fill:#fff;}.c{filter:url(#e);}</style><filter id="e" x="0" y="0" width="42" height="44" filterUnits="userSpaceOnUse"><feOffset dy="2" input="SourceAlpha"/><feGaussianBlur result="b30"/><feFlood flood-color="#606060"/><feComposite operator="in" in2="b"/><feComposite in="SourceGraphic"/></filter></defs><g class="c30" transform="matrix(1, 0, 0, 1, 0, 0)"><circle class="a30" cx="21" cy="21" r="21"/></g><g transform="translate(9.875 7.43)"><path class="b30" d="M0,5.852a1,1,0,0,1-.707-.293,1,1,0,0,1,0-1.414L4.145-.707a1,1,0,0,1,1.414,0,1,1,0,0,1,0,1.414L.707,5.559A1,1,0,0,1,0,5.852Z" transform="translate(0 15.398)"/><path class="b30" d="M288.5-511.364c-1.375,1.206-2.548,2.537-4.8,2.537s-3.4-1.317-4.762-2.5c-2.457,2.08-3.911,5.282-1.965,6.538a13.157,13.157,0,0,0,6.946,1.8,12.556,12.556,0,0,0,6.43-1.6C292.291-505.777,291.163-509.2,288.5-511.364Z" transform="translate(-272.357 530.128)"/><path class="b30" d="M282.675-526.227a9.923,9.923,0,0,1-9.912-9.912,9.923,9.923,0,0,1,9.912-9.912,9.923,9.923,0,0,1,9.912,9.912A9.923,9.923,0,0,1,282.675-526.227Zm0-17.824a7.921,7.921,0,0,0-7.912,7.912,7.921,7.921,0,0,0,7.912,7.912,7.921,7.921,0,0,0,7.912-7.912A7.921,7.921,0,0,0,282.675-544.051Z" transform="translate(-271.337 545.051)"/><g transform="translate(5.489 3.064)"><path class="b30" d="M285.111-539.551a5.848,5.848,0,0,0-5.848,5.849,5.848,5.848,0,0,0,5.848,5.849,5.848,5.848,0,0,0,5.849-5.849A5.848,5.848,0,0,0,285.111-539.551ZM283.5-532.6a1.559,1.559,0,0,1-2.206,0,1.56,1.56,0,0,1,0-2.206,1.557,1.557,0,0,1,1.88-.242l-.777,1.345h1.56A1.554,1.554,0,0,1,283.5-532.6Zm4.335.457a1.559,1.559,0,0,1-1.56-1.56,1.56,1.56,0,0,1,1.56-1.56,1.546,1.546,0,0,1,.776.214l-.776,1.345h1.56A1.56,1.56,0,0,1,287.83-532.143Z" transform="translate(-279.263 539.551)"/></g></g></svg>