<svg xmlns="http://www.w3.org/2000/svg" width="28.875" height="39.247" viewBox="0 0 28.875 39.247"><defs><style>.a{fill:#fff;}</style></defs><path class="a" d="M936.458,513.967h-.549a1.509,1.509,0,0,0-1.509,1.509V524h-1.784v-12.54a1.509,1.509,0,0,0-1.509-1.509h-.548a1.509,1.509,0,0,0-1.51,1.509V524h-1.784V509.455a1.509,1.509,0,0,0-1.509-1.509h-.549a1.509,1.509,0,0,0-1.509,1.509V524h-1.784V513.469a1.51,1.51,0,0,0-1.51-1.509h-.549a1.51,1.51,0,0,0-1.509,1.509V529.99l-2.918-3.6a6.416,6.416,0,0,0-4.632-2.364,1.614,1.614,0,0,0-1.377,2.577l6.08,8.106,2.273,3.79a3.207,3.207,0,0,0,2.75,1.556h-.392v5.627a1.51,1.51,0,0,0,1.509,1.509h13.037a1.51,1.51,0,0,0,1.509-1.509v-5.627h.275a1.509,1.509,0,0,0,1.51-1.509v-23.07A1.509,1.509,0,0,0,936.458,513.967ZM929.8,540.058a.755.755,0,1,1-1.509,0v-2.489a6.387,6.387,0,0,0-6.38-6.38.755.755,0,1,1,0-1.509,7.9,7.9,0,0,1,7.89,7.89Z" transform="translate(-909.092 -507.946)"/></svg>