<svg xmlns="http://www.w3.org/2000/svg" width="42" height="44" viewBox="0 0 42 44"><defs><style>.a2123{fill:#040206;}.b2123{fill:#232323;}.c2123{fill:#fff;}</style></defs><circle class="a2123" cx="21" cy="21" r="21" transform="translate(0 2)"/><circle class="b2123" cx="21" cy="21" r="21"/><g transform="translate(-900 -500)"><path class="c2123" d="M927.222,511.935h-.364a1,1,0,0,0-1,1v5.648h-1.182v-8.308a1,1,0,0,0-1-1h-.363a1,1,0,0,0-1,1v8.308h-1.182v-9.637a1,1,0,0,0-1-1h-.364a1,1,0,0,0-1,1v9.637h-1.182v-6.978a1,1,0,0,0-1-1h-.364a1,1,0,0,0-1,1V522.55l-1.933-2.384a4.251,4.251,0,0,0-3.069-1.566,1.069,1.069,0,0,0-.912,1.707l4.028,5.37,1.506,2.511a2.125,2.125,0,0,0,1.822,1.031h-.26v3.728a1,1,0,0,0,1,1h8.637a1,1,0,0,0,1-1v-3.728h.182a1,1,0,0,0,1-1V512.935A1,1,0,0,0,927.222,511.935Zm-4.41,17.285a.5.5,0,0,1-1,0v-1.649a4.231,4.231,0,0,0-4.227-4.227.5.5,0,0,1,0-1,5.233,5.233,0,0,1,5.227,5.227Z"/></g></svg>