<svg xmlns="http://www.w3.org/2000/svg" width="63" height="66" viewBox="0 0 63 66"><defs><style>.a23{fill:#232323;}.b23{fill:#232323;}.c23{fill:#fff;}</style></defs><ellipse class="a23" cx="31.5" cy="32" rx="31.5" ry="32" transform="translate(0 2)"/><ellipse class="b23" cx="31.5" cy="32" rx="31.5" ry="32"/><g transform="translate(12 12.91)"><path class="c23" d="M460.58-396.237c-3.7,3.131-5.886,7.948-2.957,9.84a19.809,19.809,0,0,0,10.454,2.714,18.909,18.909,0,0,0,9.675-2.4c2.928-1.792,1.23-6.942-2.78-10.2-2.068,1.814-3.834,3.816-7.225,3.816S462.637-394.451,460.58-396.237Z" transform="translate(-448.246 423.862)"/><path class="c23" d="M477.169-414.67h-13.5a12.751,12.751,0,0,0-12.75,12.75h0a12.667,12.667,0,0,0,2.063,6.938l-1.958,6.507,6.9-2.075a12.621,12.621,0,0,0,3.456,1.164,12.834,12.834,0,0,0,2.292.216h13.5a12.82,12.82,0,0,0,2.392-.231,12.749,12.749,0,0,0,10.358-12.519h0A12.75,12.75,0,0,0,477.169-414.67Zm-3.23,17.505h-15v-3h15Zm7.961-6H458.939v-3H481.9Z" transform="translate(-450.919 414.67)"/></g></svg>