<svg  xmlns="http://www.w3.org/2000/svg" width="42" height="44" viewBox="0 0 42 44"><defs><style>.a10{fill:#393939;}.b10{fill:#606060;}.c10{fill:#fff;}</style></defs><g transform="translate(-442.919 423.683)"><circle class="a10" cx="21" cy="21" r="21" transform="translate(442.919 -421.683)"/><circle class="b10" cx="21" cy="21" r="21" transform="translate(442.919 -423.683)"/><path class="c10" d="M459.142-396.253c-2.464,2.087-3.924,5.3-1.971,6.56a13.206,13.206,0,0,0,6.969,1.809,12.606,12.606,0,0,0,6.45-1.6c1.952-1.2.82-4.628-1.853-6.8-1.379,1.209-2.556,2.544-4.817,2.544S460.513-395.063,459.142-396.253Z"/><path class="c10" d="M468.419-414.67h-9a8.5,8.5,0,0,0-8.5,8.5h0a8.445,8.445,0,0,0,1.375,4.625l-1.3,4.338,4.6-1.383a8.415,8.415,0,0,0,2.3.776,8.557,8.557,0,0,0,1.528.144h9a8.55,8.55,0,0,0,1.6-.154,8.5,8.5,0,0,0,6.9-8.346h0A8.5,8.5,0,0,0,468.419-414.67ZM466.266-403h-10v-2h10Zm5.307-4H456.266v-2h15.307Z"/></g></svg>