<svg xmlns="http://www.w3.org/2000/svg" width="42" height="44" viewBox="0 0 42 44"><defs><style>.a{fill:#040206;}.b{fill:#232323;}.c{fill:#fff;}.d{fill:none;stroke:#fff;stroke-linecap:round;}</style></defs><circle class="a" cx="21" cy="21" r="21" transform="translate(0 2)"/><circle class="b" cx="21" cy="21" r="21"/><g transform="translate(12.785 7.68)"><path class="c" d="M61.308,127.586a7.163,7.163,0,0,0,7.163-7.161.936.936,0,0,0-1.867-.137.894.894,0,0,0,0,.137,5.3,5.3,0,0,1-5.3,5.289h-2.1a5.3,5.3,0,0,1-5.3-5.289.935.935,0,1,0-1.865-.137.893.893,0,0,0,0,.137,7.161,7.161,0,0,0,7.161,7.161h.114v1.4H55.47a.935.935,0,0,0,0,1.865h9.577a.935.935,0,0,0,0-1.865H61.194v-1.4Z" transform="translate(-52.043 -106.856)"/><rect class="c" width="9.571" height="13.291" rx="2.126" transform="translate(3.426 2)"/></g><line class="d" x2="23" y2="23" transform="translate(9.5 10.36)"/></svg>