<svg xmlns="http://www.w3.org/2000/svg" width="42" height="44" viewBox="0 0 42 44"><defs><style>.a{fill:#040206;}.b{fill:#232323;}.c{fill:#fff;}</style></defs><g transform="translate(-303.841 -47.784)"><circle class="a" cx="21" cy="21" r="21" transform="translate(303.841 49.784)"/><circle class="b" cx="21" cy="21" r="21" transform="translate(303.841 47.784)"/></g><g transform="translate(-303.965 -47.571)"><path class="c" d="M334.425,70.288a9.179,9.179,0,0,0,0-3.434l2.416-1.918a1.261,1.261,0,0,0,.269-1.622l-1.52-2.632a1.26,1.26,0,0,0-1.539-.579l-2.871,1.135a9.624,9.624,0,0,0-2.971-1.714l-.453-3.056a1.262,1.262,0,0,0-1.271-1.043h-3.04a1.262,1.262,0,0,0-1.271,1.043l-.452,3.056a9.624,9.624,0,0,0-2.971,1.714L315.88,60.1a1.26,1.26,0,0,0-1.539.579l-1.52,2.632a1.26,1.26,0,0,0,.268,1.622l2.417,1.918a9.179,9.179,0,0,0,0,3.434l-2.417,1.917a1.261,1.261,0,0,0-.268,1.622l1.52,2.633a1.262,1.262,0,0,0,1.539.579l2.871-1.135a9.624,9.624,0,0,0,2.971,1.714l.452,3.055a1.262,1.262,0,0,0,1.271,1.043h3.04a1.262,1.262,0,0,0,1.271-1.043l.453-3.055A9.624,9.624,0,0,0,331.18,75.9l2.871,1.135a1.262,1.262,0,0,0,1.539-.579l1.52-2.633a1.261,1.261,0,0,0-.269-1.622Zm-9.46,4.9a6.622,6.622,0,1,1,6.622-6.621A6.621,6.621,0,0,1,324.965,75.192Z"/></g></svg>